<?xml version="1.0" encoding="UTF-8"?>
<svg width="495" height="195" viewBox="0 0 495 195" fill="none" xmlns="http://www.w3.org/2000/svg" role="img" aria-labelledby="title desc">
  <title id="title">insistanan Top Languages</title>
  <desc id="desc">Static top languages card generated by GitHub Actions.</desc>
  <style>
    .title { fill: #70a5fd; font: 600 19px -apple-system, BlinkMacSystemFont, "Segoe UI", sans-serif; }
    .label { fill: #c3c6d1; font: 500 13px -apple-system, BlinkMacSystemFont, "Segoe UI", sans-serif; }
    .value { fill: #38bdae; font: 700 13px -apple-system, BlinkMacSystemFont, "Segoe UI", sans-serif; }
  </style>
  <rect width="495" height="195" rx="6" fill="#1a1b27"/>
  <rect x="1" y="1" width="493" height="193" rx="5" stroke="#2f334d" stroke-width="1"/>
  <text x="24" y="36" class="title">Top Languages</text>
  <clipPath id="barClip"><rect x="25" y="58" width="445" height="10" rx="5"/></clipPath>
  <rect x="25" y="58" width="445" height="10" rx="5" fill="#2f334d"/>
  <g clip-path="url(#barClip)"><rect x="25" y="58" width="346.26" height="10" fill="#3178c6"/><rect x="371.25820695972243" y="58" width="86.24" height="10" fill="#dea584"/><rect x="457.5018244896132" y="58" width="10.73" height="10" fill="#563d7c"/><rect x="468.2347535917308" y="58" width="2.00" height="10" fill="#f1e05a"/><rect x="470.2347535917308" y="58" width="2.00" height="10" fill="#e34c26"/><rect x="472.2347535917308" y="58" width="2.00" height="10" fill="#858585"/></g>
  
              <circle cx="31" cy="90" r="6" fill="#3178c6"/>
              <text x="45" y="95" class="label">TypeScript</text>
              <text x="230" y="95" class="value" text-anchor="end">77.8%</text>
              <circle cx="266" cy="90" r="6" fill="#dea584"/>
              <text x="280" y="95" class="label">Rust</text>
              <text x="465" y="95" class="value" text-anchor="end">19.4%</text>
              <circle cx="31" cy="122" r="6" fill="#563d7c"/>
              <text x="45" y="127" class="label">CSS</text>
              <text x="230" y="127" class="value" text-anchor="end">2.4%</text>
              <circle cx="266" cy="122" r="6" fill="#f1e05a"/>
              <text x="280" y="127" class="label">JavaScript</text>
              <text x="465" y="127" class="value" text-anchor="end">0.3%</text>
              <circle cx="31" cy="154" r="6" fill="#e34c26"/>
              <text x="45" y="159" class="label">HTML</text>
              <text x="230" y="159" class="value" text-anchor="end">0.1%</text>
              <circle cx="266" cy="154" r="6" fill="#858585"/>
              <text x="280" y="159" class="label">Dockerfile</text>
              <text x="465" y="159" class="value" text-anchor="end">0.0%</text>
</svg>
